<?xml version="1.0" encoding="UTF-8"?>
<!DOCTYPE svg PUBLIC "-//W3C//DTD SVG 1.1//EN" "http://www.w3.org/Graphics/SVG/1.1/DTD/svg11.dtd">
<!-- Creator: CorelDRAW 2017 -->
<svg xmlns="http://www.w3.org/2000/svg" xml:space="preserve" width="66px" height="61px" version="1.1" style="shape-rendering:geometricPrecision; text-rendering:geometricPrecision; image-rendering:optimizeQuality; fill-rule:evenodd; clip-rule:evenodd"
viewBox="0 0 81.45 75.81"
 xmlns:xlink="http://www.w3.org/1999/xlink">
 <defs>
  <style type="text/css">
   <![CDATA[
    .fil0 {fill:#0B6666;fill-rule:nonzero}
   ]]>
  </style>
 </defs>
 <g id="Camada_x0020_1">
  <metadata id="CorelCorpID_0Corel-Layer"/>
  <g id="_1879166882304">
   <path class="fil0" d="M31.29 34.55c9.54,0 17.28,-7.73 17.28,-17.27 0,-9.55 -7.74,-17.28 -17.28,-17.28 -9.54,0 -17.27,7.73 -17.27,17.28 0,9.54 7.73,17.27 17.27,17.27zm19.03 5.37c-0.6,-0.08 -1.2,-0.13 -1.82,-0.13l-6.15 0c-1.37,0 -2.65,0.67 -3.44,1.79l-4.3 6.16c-1.68,2.4 -5.25,2.38 -6.9,-0.05l-4.12 -6.06c-0.78,-1.15 -2.08,-1.84 -3.47,-1.84l-6.04 0c-7.77,0 -14.08,6.31 -14.08,14.08l0 6.26c0,1.15 0.94,2.09 2.1,2.09l40.68 0 7.54 -10.94 0 -11.36zm-31.44 16.5l-8.38 0c-1.45,0 -2.62,-1.17 -2.62,-2.62 0,-1.44 1.17,-2.62 2.62,-2.62l8.38 0c1.45,0 2.62,1.18 2.62,2.62 0,1.45 -1.17,2.62 -2.62,2.62zm61.67 11.47l-9.43 -13.68c-0.59,-0.85 -0.9,-1.85 -0.9,-2.87l0 -14.72c0,-0.35 -0.28,-0.63 -0.63,-0.63l-13.4 0c-0.35,0 -0.63,0.28 -0.63,0.63l0 14.72c0,1.02 -0.32,2.02 -0.9,2.87l-9.43 13.68c-2.3,3.35 0.09,7.92 4.16,7.92l27 0c4.07,0 6.46,-4.57 4.16,-7.92z"/>
   <path class="fil0" d="M69.18 25.51l-12.58 0c-1.73,0 -3.14,1.41 -3.14,3.15 0,1.73 1.41,3.14 3.14,3.14l12.58 0c1.73,0 3.14,-1.41 3.14,-3.14 0,-1.74 -1.41,-3.15 -3.14,-3.15z"/>
  </g>
 </g>
</svg>
