<?xml version="1.0" encoding="UTF-8"?>
<!DOCTYPE svg PUBLIC "-//W3C//DTD SVG 1.1//EN" "http://www.w3.org/Graphics/SVG/1.1/DTD/svg11.dtd">
<!-- Creator: CorelDRAW 2017 -->
<svg xmlns="http://www.w3.org/2000/svg" xml:space="preserve" width="60px" height="67px" version="1.1" style="shape-rendering:geometricPrecision; text-rendering:geometricPrecision; image-rendering:optimizeQuality; fill-rule:evenodd; clip-rule:evenodd"
viewBox="0 0 60 67.05"
 xmlns:xlink="http://www.w3.org/1999/xlink">
 <defs>
  <style type="text/css">
   <![CDATA[
    .fil0 {fill:white}
   ]]>
  </style>
 </defs>
 <g id="Camada_x0020_1">
  <metadata id="CorelCorpID_0Corel-Layer"/>
  <path class="fil0" d="M46.5 32.94l-19.87 19.71c-0.63,0.63 -1.65,0.62 -2.27,-0.01l-10.06 -10.13c-0.62,-0.63 -0.62,-1.65 0.01,-2.27l3.04 -3.02c0.63,-0.63 1.65,-0.63 2.27,0.01l5.91 5.95 14.88 -14.76c0.63,-0.63 1.65,-0.62 2.27,0.01l3.02 3.05c0.62,0.62 0.62,1.64 -0.01,2.27l0.81 -0.81zm-39.27 27.68c-0.45,0 -0.81,-0.36 -0.81,-0.8l0 -39.92 47.16 0 0 39.92c0,0.44 -0.36,0.8 -0.81,0.8l-45.54 0zm42.18 -53.57l0 1.53c0,3.16 -2.6,5.76 -5.78,5.76l-2.85 0c-3.17,0 -5.78,-2.6 -5.78,-5.76l0 -1.53 -9.68 0 0 1.53c0,3.19 -2.58,5.76 -5.77,5.76l-2.86 0c-3.18,0 -5.77,-2.61 -5.77,-5.76l0 -1.53 -4.5 0c-3.54,0 -6.42,2.87 -6.42,6.43l0 47.14c0,3.55 2.88,6.43 6.42,6.43l47.16 0c3.54,0 6.42,-2.88 6.42,-6.43l0 -47.14c0,-3.56 -2.88,-6.43 -6.42,-6.43l-4.17 0zm-32.72 -7.05l2.86 0c1.57,0 2.85,1.28 2.85,2.86l0 5.72c0,1.56 -1.28,2.85 -2.85,2.85l-2.86 0c-1.57,0 -2.85,-1.29 -2.85,-2.85l0 -5.72c0,-1.58 1.28,-2.86 2.85,-2.86zm24.09 0l2.85 0c1.57,0 2.87,1.28 2.87,2.86l0 5.72c0,1.56 -1.3,2.85 -2.87,2.85l-2.85 0c-1.58,0 -2.86,-1.29 -2.86,-2.85l0 -5.72c0,-1.58 1.28,-2.86 2.86,-2.86z"/>
 </g>
</svg>
