<?xml version="1.0" encoding="UTF-8"?>
<!DOCTYPE svg PUBLIC "-//W3C//DTD SVG 1.1//EN" "http://www.w3.org/Graphics/SVG/1.1/DTD/svg11.dtd">
<!-- Creator: CorelDRAW 2017 -->
<svg xmlns="http://www.w3.org/2000/svg" xml:space="preserve" width="65px" height="73px" version="1.1" style="shape-rendering:geometricPrecision; text-rendering:geometricPrecision; image-rendering:optimizeQuality; fill-rule:evenodd; clip-rule:evenodd"
viewBox="0 0 65 72.64"
 xmlns:xlink="http://www.w3.org/1999/xlink">
 <defs>
  <style type="text/css">
   <![CDATA[
    .fil0 {fill:#0B6666}
   ]]>
  </style>
 </defs>
 <g id="Camada_x0020_1">
  <metadata id="CorelCorpID_0Corel-Layer"/>
  <path class="fil0" d="M50.37 35.69l-21.52 21.35c-0.68,0.68 -1.79,0.67 -2.46,-0.01l-10.9 -10.98c-0.67,-0.68 -0.67,-1.79 0.01,-2.46l3.3 -3.27c0.68,-0.68 1.78,-0.68 2.46,0.01l6.4 6.45 16.12 -15.99c0.68,-0.68 1.78,-0.67 2.46,0.01l3.27 3.3c0.67,0.68 0.67,1.78 -0.01,2.46l0.87 -0.87zm-42.54 29.98c-0.48,0 -0.87,-0.39 -0.87,-0.87l0 -43.24 51.08 0 0 43.24c0,0.48 -0.39,0.87 -0.87,0.87l-49.34 0zm45.7 -58.03l0 1.65c0,3.43 -2.82,6.25 -6.26,6.25l-3.09 0c-3.44,0 -6.26,-2.82 -6.26,-6.25l0 -1.65 -10.49 0 0 1.65c0,3.46 -2.79,6.25 -6.25,6.25l-3.1 0c-3.44,0 -6.25,-2.83 -6.25,-6.25l0 -1.65 -4.87 0c-3.84,0 -6.96,3.11 -6.96,6.96l0 51.07c0,3.85 3.12,6.97 6.96,6.97l51.08 0c3.84,0 6.96,-3.12 6.96,-6.97l0 -51.07c0,-3.85 -3.12,-6.96 -6.96,-6.96l-4.51 0zm-35.45 -7.64l3.1 0c1.7,0 3.09,1.39 3.09,3.1l0 6.19c0,1.7 -1.39,3.09 -3.09,3.09l-3.1 0c-1.7,0 -3.09,-1.39 -3.09,-3.09l0 -6.19c0,-1.71 1.39,-3.1 3.09,-3.1zm26.1 0l3.09 0c1.7,0 3.1,1.39 3.1,3.1l0 6.19c0,1.7 -1.4,3.09 -3.1,3.09l-3.09 0c-1.71,0 -3.1,-1.39 -3.1,-3.09l0 -6.19c0,-1.71 1.39,-3.1 3.1,-3.1z"/>
 </g>
</svg>
