<?xml version="1.0" encoding="UTF-8"?>
<!DOCTYPE svg PUBLIC "-//W3C//DTD SVG 1.1//EN" "http://www.w3.org/Graphics/SVG/1.1/DTD/svg11.dtd">
<!-- Creator: CorelDRAW 2017 -->
<svg xmlns="http://www.w3.org/2000/svg" xml:space="preserve" width="211667px" height="197556px" version="1.1" style="shape-rendering:geometricPrecision; text-rendering:geometricPrecision; image-rendering:optimizeQuality; fill-rule:evenodd; clip-rule:evenodd"
viewBox="0 0 211659.34 197009.03"
 xmlns:xlink="http://www.w3.org/1999/xlink">
 <defs>
  <style type="text/css">
   <![CDATA[
    .fil0 {fill:white;fill-rule:nonzero}
   ]]>
  </style>
 </defs>
 <g id="Camada_x0020_1">
  <metadata id="CorelCorpID_0Corel-Layer"/>
  <g id="_1879166882304">
   <path class="fil0" d="M81314.01 89785.37c24791.53,0 44905.5,-20088.34 44905.5,-44879.87 0,-24817.16 -20113.97,-44905.5 -44905.5,-44905.5 -24791.53,0 -44879.86,20088.34 -44879.86,44905.5 0,24791.53 20088.33,44879.87 44879.86,44879.87zm49453.67 13955.76c-1558.78,-207.51 -3118.78,-338.12 -4730.05,-338.12l-15982.05 0c-3560.65,0 -6886.94,1740.65 -8940.08,4651.92l-11173.89 16007.68c-4366.29,6236.34 -13643.27,6185.07 -17931.44,-129.39l-10706.37 -15747.68c-2027.51,-2988.17 -5405.07,-4781.31 -9016.99,-4781.31l-15696.42 0c-20192.09,0 -36590.39,16398.29 -36590.39,36590.39l0 16267.68c0,2988.17 2442.53,5431.92 5457.55,5431.92l105716.15 0 19593.98 -28430.3 0 -29521.57 0 -1.22zm-81703.4 42879.21l-21777.73 0c-3768.17,0 -6808.82,-3040.66 -6808.82,-6808.82 0,-3742.53 3040.65,-6808.82 6808.82,-6808.82l21777.73 0c3768.16,0 6808.82,3066.29 6808.82,6808.82 0,3768.16 -3040.66,6808.82 -6808.82,6808.82zm160263.61 29807.2l-24505.89 -35550.39c-1533.15,-2209.39 -2338.78,-4808.16 -2338.78,-7458.21l0 -38252.92c0,-909.39 -727.51,-1636.9 -1636.9,-1636.9l-34822.88 0c-909.39,0 -1636.9,727.51 -1636.9,1636.9l0 38252.92c0,2651.27 -831.27,5248.82 -2338.78,7458.21l-24505.89 35550.39c-5977.56,8705.72 234.36,20581.49 10810.13,20581.49l70165.76 0c10576.98,0 16787.68,-11875.77 10810.13,-20581.49z"/>
   <path class="fil0" d="M179779.46 66293.84l-32691.61 0c-4495.68,0 -8160.09,3664.41 -8160.09,8185.72 0,4495.67 3664.41,8160.08 8160.09,8160.08l32691.61 0c4495.68,0 8160.09,-3664.41 8160.09,-8160.08 0,-4521.31 -3664.41,-8185.72 -8160.09,-8185.72z"/>
  </g>
 </g>
</svg>
